<?xml version="1.0" standalone="no"?>
<!DOCTYPE svg PUBLIC "-//W3C//DTD SVG 20010904//EN"
 "http://www.w3.org/TR/2001/REC-SVG-20010904/DTD/svg10.dtd">
<svg version="1.0" xmlns="http://www.w3.org/2000/svg"
 width="962.000000pt" height="284.000000pt" viewBox="0 0 962.000000 284.000000"
 preserveAspectRatio="xMidYMid meet">

<g transform="translate(0.000000,284.000000) scale(0.100000,-0.100000)"
fill="#000000" stroke="none">
<path d="M2580 1615 l0 -625 95 0 95 0 0 625 0 625 -95 0 -95 0 0 -625z"/>
<path d="M8192 2223 c-15 -28 -502 -1218 -502 -1226 0 -4 44 -7 98 -7 l97 0
60 163 60 162 246 3 247 2 62 -165 63 -165 98 0 c55 0 99 2 99 4 0 2 -114 282
-254 622 l-254 619 -55 3 c-45 2 -58 0 -65 -15z m157 -513 l89 -235 -180 -3
c-100 -1 -183 0 -185 2 -3 3 37 114 88 247 51 133 94 238 96 233 2 -5 43 -115
92 -244z"/>
<path d="M8990 1615 l0 -625 90 0 90 0 0 625 0 625 -90 0 -90 0 0 -625z"/>
<path d="M5890 2203 c-39 -15 -60 -47 -60 -89 0 -35 5 -47 31 -68 41 -35 83
-34 120 3 37 37 39 88 7 125 -23 26 -70 40 -98 29z"/>
<path d="M795 2101 c-90 -41 -105 -84 -105 -295 l0 -166 -27 -6 c-20 -5 -30
-2 -39 12 -38 57 -35 56 -87 24 l-47 -30 19 -39 20 -38 -39 -38 -40 -39 -35
17 c-20 9 -38 17 -40 17 -2 0 -16 -21 -31 -46 l-28 -47 21 -16 c11 -9 28 -20
37 -26 14 -9 14 -15 0 -61 -15 -53 -29 -64 -81 -64 -21 0 -23 -5 -23 -55 0
-50 2 -55 23 -55 50 0 63 -11 80 -63 14 -47 14 -53 0 -62 -8 -5 -25 -17 -36
-26 l-21 -16 28 -47 c15 -25 29 -46 31 -46 2 0 20 8 40 17 l35 17 40 -39 39
-38 -20 -39 c-11 -22 -19 -41 -17 -42 2 -1 24 -14 50 -29 l46 -27 23 36 c20
33 24 35 56 29 73 -13 83 -21 83 -65 l0 -40 60 0 60 0 0 43 0 42 57 14 c47 11
58 11 64 -1 31 -54 34 -55 83 -29 25 13 46 28 46 33 0 5 -7 23 -16 40 -16 31
-16 31 25 71 l40 41 36 -17 c20 -9 37 -17 39 -17 2 0 16 21 31 46 l27 46 -28
24 -29 23 243 1 c226 0 243 1 240 18 -3 16 -35 17 -455 22 -437 5 -452 6 -480
26 -62 46 -63 50 -63 479 0 362 1 393 19 425 10 19 34 44 52 55 33 19 52 20
569 20 l535 0 36 -23 c50 -30 69 -81 69 -183 l0 -80 -33 25 c-90 69 -178 75
-365 27 -98 -25 -127 -29 -144 -20 -15 8 -35 8 -79 -1 -33 -7 -59 -14 -59 -17
0 -8 63 -258 66 -262 2 -2 30 2 63 9 45 9 61 18 69 35 8 16 23 25 52 30 23 4
43 5 44 3 2 -1 22 -79 44 -173 23 -93 75 -310 117 -481 l76 -311 98 24 98 25
-128 476 c-71 262 -129 484 -129 493 0 46 99 67 150 32 62 -43 60 -36 58 -299
-2 -182 -6 -245 -16 -257 -15 -17 -13 -56 2 -60 6 -1 19 14 30 33 19 32 21 56
26 290 l5 255 23 3 23 4 -25 32 c-22 30 -25 42 -28 163 -3 121 -5 132 -30 170
-16 24 -44 49 -70 62 -43 21 -54 21 -579 21 -497 0 -537 -2 -574 -19z m1085
-276 c45 -16 85 -46 127 -95 36 -44 20 -50 -23 -9 -33 32 -39 34 -105 34 -63
0 -71 -2 -92 -27 -18 -22 -46 -33 -147 -59 -69 -18 -126 -36 -128 -39 -9 -22
-31 -39 -58 -45 l-31 -6 -25 100 -26 101 35 6 c20 4 44 2 57 -5 19 -11 44 -7
152 23 143 38 201 43 264 21z m-1190 -410 c0 -74 -4 -115 -15 -134 -8 -16 -17
-48 -21 -70 -8 -52 -34 -86 -86 -112 -72 -37 -100 -8 -99 103 0 97 24 159 88
229 46 49 101 88 126 89 4 0 7 -47 7 -105z m245 -384 c116 -6 120 -7 123 -30
7 -50 -91 -115 -203 -134 -79 -13 -164 7 -241 58 -69 45 -75 74 -25 116 56 46
85 50 161 21 50 -19 93 -26 185 -31z"/>
<path d="M1495 1713 c8 -27 15 -51 15 -55 0 -5 4 -8 10 -8 5 0 7 6 5 13 -2 6
-9 31 -15 55 -6 23 -15 42 -20 42 -5 0 -3 -21 5 -47z"/>
<path d="M850 1923 c0 -9 11 -29 26 -44 l25 -26 -25 -31 c-54 -63 -21 -71 41
-10 l43 42 -42 43 c-44 45 -68 54 -68 26z"/>
<path d="M3415 1824 c-80 -20 -155 -68 -180 -113 -14 -25 -14 -23 -15 37 l0
62 -85 0 -85 0 0 -410 0 -410 85 0 85 0 0 248 c0 264 6 310 50 372 30 42 89
70 163 76 52 5 69 2 106 -18 92 -47 101 -88 101 -429 l0 -249 86 0 86 0 -4
298 c-4 283 -5 300 -27 356 -30 74 -93 139 -159 160 -50 17 -173 28 -207 20z"/>
<path d="M4220 1814 c-103 -27 -169 -91 -189 -183 -14 -65 -4 -114 33 -169 40
-60 106 -93 253 -128 133 -31 163 -50 163 -102 0 -20 -6 -44 -13 -53 -35 -46
-148 -70 -225 -50 -24 7 -60 27 -81 46 l-38 34 -53 -54 c-53 -54 -53 -55 -35
-75 10 -11 53 -37 94 -58 73 -36 77 -37 190 -37 106 0 120 2 167 27 135 71
181 211 109 334 -36 61 -104 98 -241 129 -61 15 -125 35 -142 45 -88 54 -22
160 98 160 64 0 108 -15 153 -51 l39 -31 53 52 c30 30 52 57 49 62 -3 4 -25
22 -50 39 -95 65 -228 90 -334 63z"/>
<path d="M5141 1819 c-30 -5 -78 -22 -108 -38 l-53 -29 0 29 0 29 -90 0 -90 0
0 -620 0 -620 90 0 90 0 0 238 0 239 62 -31 c53 -26 74 -31 157 -34 113 -4
183 15 261 73 58 43 124 137 145 209 22 73 20 197 -4 277 -37 119 -136 224
-246 262 -57 20 -150 27 -214 16z m166 -160 c81 -39 134 -127 141 -234 5 -85
-8 -138 -51 -202 -59 -88 -170 -128 -273 -98 -116 34 -178 129 -178 275 0 94
22 161 72 213 72 76 188 94 289 46z"/>
<path d="M6555 1816 c-55 -17 -94 -44 -116 -81 l-19 -30 0 53 0 52 -85 0 -85
0 0 -410 0 -410 85 0 85 0 0 237 c0 288 9 331 79 404 37 37 55 48 91 53 25 3
60 2 79 -4 19 -5 35 -9 36 -7 6 9 36 130 33 133 -6 5 -107 24 -127 23 -9 0
-34 -6 -56 -13z"/>
<path d="M7118 1820 c-118 -20 -231 -106 -283 -215 -14 -31 -31 -91 -37 -134
-29 -198 63 -381 230 -459 53 -25 66 -27 197 -27 131 0 144 2 195 26 30 15 73
43 95 64 l40 37 -60 53 -59 53 -35 -30 c-107 -94 -265 -94 -365 0 -32 30 -65
96 -66 130 l0 22 325 0 325 0 0 43 c-1 121 -56 270 -128 340 -88 86 -226 122
-374 97z m170 -145 c83 -25 128 -75 147 -162 l7 -33 -236 0 c-265 0 -254 -4
-217 75 51 109 171 158 299 120z"/>
<path d="M5830 1400 l0 -410 90 0 90 0 0 410 0 410 -90 0 -90 0 0 -410z"/>
<path d="M975 1780 c-13 -21 12 -31 71 -28 44 2 59 7 59 18 0 19 -119 28 -130
10z"/>
</g>
</svg>
